/* XPM */
static char *_4bc382605664ed5fb52e3b5d96921efv2RhwSy4bXBm2i82[] = {
/* columns rows colors chars-per-pixel */
"64 64 4 1 ",
"  c gray12",
". c gray20",
"X c #434343",
"o c gray39",
/* pixels */
"                                                                ",
" oooooooooooooooooooooooooooooo  oooooooooooooooooooooooooooooo ",
" oXXX....XXXXXXXXXXXXXX....XXX.  oXXX....XXXXXXXXXXXXXX....XXX. ",
" oXX..X.  XXXXXXXXXXXX..X.  XX.  oXX..X.  XXXXXXXXXXXX..X.  XX. ",
" oX..Xo . .XXXXXXXXXX..Xo . .X.  oX..Xo . .XXXXXXXXXX..Xo . .X. ",
" oX.Xo oX .XXXXXXXXXX.Xo oX .X.  oX.Xo oX .XXXXXXXXXX.Xo oX .X. ",
" oX.. oX. .XXXXXXXXXX.. oX. .X.  oX.. oX. .XXXXXXXXXX.. oX. .X. ",
" oX. .X.  .XXXXXXXXXX. .X.  .X.  oX. .X.  .XXXXXXXXXX. .X.  .X. ",
" oXX     .XXXXXXXXXXXX     .XX.  oXX     .XXXXXXXXXXXX     .XX. ",
" oXXX....XXXXXXXXXXXXXX....XXX.  oXXX....XXXXXXXXXXXXXX....XXX. ",
" oXXXXXXXXXXXXXXXXXXXXXXXXXXXX.  oXXXXXXXXXXXXXXXXXXXXXXXXXXXX. ",
" oXXXXXXXXXXXXXXXXXXXXXXXXXXXX.  oXXXXXXXXXXXXXXXXXXXXXXXXXXXX. ",
" oXXXXXXXXXXXXXXXXXXXXXXXXXXXX.  oXXXXXXXXXXXXXXXXXXXXXXXXXXXX. ",
" oXXXXXXXXXXXXXXXXXXXXXXXXXXXX.  oXXXXXXXXXXXXXXXXXXXXXXXXXXXX. ",
" oXXXXXXXXXXXXXXXXXXXXXXXXXXXX.  oXXXXXXXXXXXXXXXXXXXXXXXXXXXX. ",
" oXXXXXXXXXXXXXXXXXXXXXXXXXXXX.  oXXXXXXXXXXXXXXXXXXXXXXXXXXXX. ",
" oXXXXXXXXXXXXXXXXXXXXXXXXXXXX.  oXXXXXXXXXXXXXXXXXXXXXXXXXXXX. ",
" oXXXXXXXXXXXXXXXXXXXXXXXXXXXX.  oXXXXXXXXXXXXXXXXXXXXXXXXXXXX. ",
" oXXXXXXXXXXXXXXXXXXXXXXXXXXXX.  oXXXXXXXXXXXXXXXXXXXXXXXXXXXX. ",
" oXXXXXXXXXXXXXXXXXXXXXXXXXXXX.  oXXXXXXXXXXXXXXXXXXXXXXXXXXXX. ",
" oXXXXXXXXXXXXXXXXXXXXXXXXXXXX.  oXXXXXXXXXXXXXXXXXXXXXXXXXXXX. ",
" oXXXXXXXXXXXXXXXXXXXXXXXXXXXX.  oXXXXXXXXXXXXXXXXXXXXXXXXXXXX. ",
" oXXXXXXXXXXXXXXXXXXXXXXXXXXXX.  oXXXXXXXXXXXXXXXXXXXXXXXXXXXX. ",
" oXXXXXXXXXXXXXXXXXXXXXXXXXXXX.  oXXXXXXXXXXXXXXXXXXXXXXXXXXXX. ",
" oXXXXXXXXXXXXXXXXXXXXXXXXXXXX.  oXXXXXXXXXXXXXXXXXXXXXXXXXXXX. ",
" oXXXXXXXXXXXXXXXXXXXXXXXXXXXX.  oXXXXXXXXXXXXXXXXXXXXXXXXXXXX. ",
" oXXXXXXXXXXXXXXXXXXXXXXXXXXXX.  oXXXXXXXXXXXXXXXXXXXXXXXXXXXX. ",
" oXXXXXXXXXXXXXXXXXXXXXXXXXXXX.  oXXXXXXXXXXXXXXXXXXXXXXXXXXXX. ",
" oXXXXXXXXXXXXXXXXXXXXXXXXXXXX.  oXXXXXXXXXXXXXXXXXXXXXXXXXXXX. ",
" oXXXXXXXXXXXXXXXXXXXXXXXXXXXX.  oXXXXXXXXXXXXXXXXXXXXXXXXXXXX. ",
" oXXXXXXXXXXXXXXXXXXXXXXXXXXXX.  oXXXXXXXXXXXXXXXXXXXXXXXXXXXX. ",
" oXXXXXXXXXXXXXXXXXXXXXXXXXXXX.  oXXXXXXXXXXXXXXXXXXXXXXXXXXXX. ",
" oXXXXXXXXXXXXXXXXXXXXXXXXXXXX.  oXXXXXXXXXXXXXXXXXXXXXXXXXXXX. ",
" oXXXXXXXXXXXXXXXXXXXXXXXXXXXX.  oXXXXXXXXXXXXXXXXXXXXXXXXXXXX. ",
" oXXXXXXXXXXXXXXXXXXXXXXXXXXXX.  oXXXXXXXXXXXXXXXXXXXXXXXXXXXX. ",
" oXXXXXXXXXXXXXXXXXXXXXXXXXXXX.  oXXXXXXXXXXXXXXXXXXXXXXXXXXXX. ",
" oXXXXXXXXXXXXXXXXXXXXXXXXXXXX.  oXXXXXXXXXXXXXXXXXXXXXXXXXXXX. ",
" oXXXXXXXXXXXXXXXXXXXXXXXXXXXX.  oXXXXXXXXXXXXXXXXXXXXXXXXXXXX. ",
" oXXXXXXXXXXXXXXXXXXXXXXXXXXXX.  oXXXXXXXXXXXXXXXXXXXXXXXXXXXX. ",
" oXXXXXXXXXXXXXXXXXXXXXXXXXXXX.  oXXXXXXXXXXXXXXXXXXXXXXXXXXXX. ",
" oXXXXXXXXXXXXXXXXXXXXXXXXXXXX.  oXXXXXXXXXXXXXXXXXXXXXXXXXXXX. ",
" oXXXXXXXXXXXXXXXXXXXXXXXXXXXX.  oXXXXXXXXXXXXXXXXXXXXXXXXXXXX. ",
" oXXXXXXXXXXXXXXXXXXXXXXXXXXXX.  oXXXXXXXXXXXXXXXXXXXXXXXXXXXX. ",
" oXXXXXXXXXXXXXXXXXXXXXXXXXXXX.  oXXXXXXXXXXXXXXXXXXXXXXXXXXXX. ",
" oXXXXXXXXXXXXXXXXXXXXXXXXXXXX.  oXXXXXXXXXXXXXXXXXXXXXXXXXXXX. ",
" oXXXXXXXXXXXXXXXXXXXXXXXXXXXX.  oXXXXXXXXXXXXXXXXXXXXXXXXXXXX. ",
" oXXXXXXXXXXXXXXXXXXXXXXXXXXXX.  oXXXXXXXXXXXXXXXXXXXXXXXXXXXX. ",
" oXXXXXXXXXXXXXXXXXXXXXXXXXXXX.  oXXXXXXXXXXXXXXXXXXXXXXXXXXXX. ",
" oXXXXXXXXXXXXXXXXXXXXXXXXXXXX.  oXXXXXXXXXXXXXXXXXXXXXXXXXXXX. ",
" oXXXXXXXXXXXXXXXXXXXXXXXXXXXX.  oXXXXXXXXXXXXXXXXXXXXXXXXXXXX. ",
" oXXXXXXXXXXXXXXXXXXXXXXXXXXXX.  oXXXXXXXXXXXXXXXXXXXXXXXXXXXX. ",
" oXXXXXXXXXXXXXXXXXXXXXXXXXXXX.  oXXXXXXXXXXXXXXXXXXXXXXXXXXXX. ",
" oXXXXXXXXXXXXXXXXXXXXXXXXXXXX.  oXXXXXXXXXXXXXXXXXXXXXXXXXXXX. ",
" oXXXXXXXXXXXXXXXXXXXXXXXXXXXX.  oXXXXXXXXXXXXXXXXXXXXXXXXXXXX. ",
" oXXX....XXXXXXXXXXXXXX....XXX.  oXXX....XXXXXXXXXXXXXX....XXX. ",
" oXX..X.  XXXXXXXXXXXX..X.  XX.  oXX..X.  XXXXXXXXXXXX..X.  XX. ",
" oX..Xo . .XXXXXXXXXX..Xo . .X.  oX..Xo . .XXXXXXXXXX..Xo . .X. ",
" oX.Xo oX .XXXXXXXXXX.Xo oX .X.  oX.Xo oX .XXXXXXXXXX.Xo oX .X. ",
" oX.. oX. .XXXXXXXXXX.. oX. .X.  oX.. oX. .XXXXXXXXXX.. oX. .X. ",
" oX. .X.  .XXXXXXXXXX. .X.  .X.  oX. .X.  .XXXXXXXXXX. .X.  .X. ",
" oXX     .XXXXXXXXXXXX     .XX.  oXX     .XXXXXXXXXXXX     .XX. ",
" oXXX....XXXXXXXXXXXXXX....XXX.  oXXX....XXXXXXXXXXXXXX....XXX. ",
" o.............................  o............................. ",
"                                                                "
};
