/* XPM */
static char *_87006e32e1846bbadd346ce441812bbamGc325dCdSWPVOj[] = {
/* columns rows colors chars-per-pixel */
"64 64 55 1 ",
"  c None",
". c gray77",
"X c #C5C4C4",
"o c #C4C5C4",
"O c #C5C5C4",
"+ c #C4C4C5",
"@ c #C5C4C5",
"# c #C4C5C5",
"$ c #C5C5C5",
"% c #DCDCDB",
"& c #DCDBDC",
"* c #DBDCDC",
"= c gainsboro",
"- c #DDDCDC",
"; c #DCDDDC",
": c #DCDCDD",
"> c #DDDCDD",
", c #E2E2E1",
"< c #E2E1E2",
"1 c #E1E2E2",
"2 c #E2E2E2",
"3 c #E3E2E2",
"4 c #E2E2E3",
"5 c #EDEEED",
"6 c #EEEEEE",
"7 c #EFEEEE",
"8 c #EEEFEE",
"9 c #EFEFEE",
"0 c #EEEEEF",
"q c #EFEEEF",
"w c #EEEFEF",
"e c #EFEFEF",
"r c #F3F3F2",
"t c #F3F2F3",
"y c #F2F3F3",
"u c #F3F3F3",
"i c #F3F4F3",
"p c #F4F4F3",
"a c #F3F3F4",
"s c #F3F4F4",
"d c #F6F6F5",
"f c #F6F6F6",
"g c #FAFBFA",
"h c #FBFBFA",
"j c #FBFAFB",
"k c #FAFBFB",
"l c #FBFBFB",
"z c #FDFCFC",
"x c #FCFDFC",
"c c #FDFDFC",
"v c #FCFCFD",
"b c #FDFCFD",
"n c #FCFDFD",
"m c #FDFDFD",
"M c white",
/* pixels */
"@@o.@.@@..@.@@..@o.@@o@@X@@@@.@@@X@oX@Xo@..@XX@..@@o@.@@X.@oo@o*",
"@*=*%%*%=*==*%=*==&=%*==*=%*==*==%==*%%*==*=%*==*=%*==*%=*=%*%e%",
"@=wwww                                                    eeehe%",
"X=whuw                                                    1izde*",
"X*eimu2                                                  2umipe*",
"@%eeimu2                                                2umleie%",
"X%  2umu2                                              2umle  w%",
"X*   2umi2                                            2imlw   w%",
"@=    2umi2                                          2umhw    w%",
"@=     2umu2                                        2umlw     w&",
"@*      2ubu2                                      2umle      w%",
"@%       2umu2                                    2umhe       w%",
"X%        2umu2                                  2umle        e%",
"X*         2umu2                                2umhw         w&",
"@=          2umu2                              2amhq          w%",
"o=           2umu2                            2imkq           w%",
"o*            2imu2                          2ubhe            w%",
".%             2umu2                        2uzlw             w&",
".%              2umu2                      2uzle              w%",
"@*               2umu2                    2imhw               w%",
"@=                2umu2                  2umxw                w%",
"@=                 2umu2                2umhq                 w&",
".*                  2umu2              2umke                  w%",
"@=                   2uzu2            2umle                   e%",
"o%                    2umu2          2umhq                    w%",
"o*                     2umu2        2umle                     w&",
"@=                      2umu2      2amhq                      w%",
"@=                       2umu2    2umkq                       w%",
"@*                        2umu2  2umhq                        w&",
"@%                         2uxu22umuq                         w=",
"o%                          2umuums2                          w%",
"@*                           2ummu2                           w%",
"@=                           2ummu2                           w%",
"X=                          2umlumu2                          w%",
"o*                         2umlw2umu2                         w%",
"@%                        2umle  2uxu2                        w%",
".%                       2umle    2umi2                       w%",
"@*                      2umle      2uzu2                      w&",
"@=                     2umhw        2umu2                     w%",
"X=                    2umle          2umu2                    w%",
"X%                   2umle            2umu2                   w%",
"@=                  2umle              2umu2                  e=",
".=                 2amhw                2umu2                 w%",
"@*                2umhw                  2ubu2                w%",
"@=               2umhw                    2umu2               w%",
"X=              2umlw                      2umu2              w&",
"o*             2umhw                        2umu2             w%",
"@%            2uzlw                          2umu2            w&",
"@%           2umle                            2umu2           w*",
"X*          2umhe                              2umu2          w%",
"@=         2amhq                                2umu2         w%",
"@=        2umkq                                  2umu2        w%",
"o*       2umhw                                    2umu2       w%",
"@%      2uzlw                                      2umu2      w&",
"o%     2umle                                        2umu2     w%",
"o*    2umlw                                          2umu2    w%",
"@=   2umhw                                            2umu2   w&",
"X=  2umle                                              2umu2  w=",
"@*e2umpe                                                2umu2hw*",
"@%wums2                                                  2umuhw%",
"@=emu2                                                    2umkq=",
".*hfuu                                                    hhhke=",
"@weewwwwwwwwwwwwwwwwwwwewwwwwwwwwwwwweweewwwwwwewwwewewwwwwweee=",
"*===&&%&%%&%%&%%&%%&%%&%%&&%&%%&%%&%%&%%&%%&%%&%%&%%&%%&%%=%*=%="
};
