/* XPM */
static char *eafdf5095fda4f2be1980de6e114e3f3SGODLtGQe0WuXmiS[] = {
/* columns rows colors chars-per-pixel */
"64 64 12 1 ",
"  c gray12",
". c gray17",
"X c gray20",
"o c gray22",
"O c #3C3C3C",
"+ c #3E3E3E",
"@ c gray25",
"# c gray26",
"$ c #434343",
"% c gray27",
"& c #494949",
"* c #535353",
/* pixels */
"O#*************************************************************O",
"%OO##%#%###%#%###%#%###%#%##%%###%%####%#%#%##%####%#%%#%#%%##oo",
"*OOOOOOOOOooOOO#&###Oo#%#OOOOOOOoooOo##&###oooO##OOOOOOOoOOOOOX.",
"*%OOOOOOOooOOOO&###OO#%OoOOOOOOoooOO##&%##Ooo#%#oOOOOOOOOOOOOOX ",
"*%OOOOOOooOOO#&#%OOO###OOOOOOOoooOo##&###Ooo###OOOOOOOOOOOOOOOX ",
"*%OOOOOooOOO#&%##OO###OOOOOOOoooOO##&%##ooo###oOOOOOOOOOOOOOOoX ",
"*#OOOOooOOo#&%##OOO%OOOOOOOOoooOO#%&%##ooo###oOOOOOOOOOOOOOOooX ",
"*#OOOooOOO#&###oo#%#OOOOOOOoooOOO#&###Ooo###OOOOOOOOOOOOOOOoooX ",
"*#OOooOOO#&###OOO%#OOOOOOOoooOOO%&###OooO##oOOOOOOOOOOOOOOoooOX ",
"*%OooOOOO&%##oo#%#oOOOOOOoooOO#%&%##ooo#%#OOOOOOOOOOOOOOOoooOOX ",
"*#ooOOo#&%##Oo#%#oOOOOOOoooOO##&%##oooO##OOOOOOOOOOOOOOOoooOo#X ",
"*%oOOO#&%##oO#%OOOOOOOOoooOo##&###Ooo#%#OOOOOOOOOOOOOOOoooOO##X ",
"*#OOo#&#%#OO#%#oOOOOOOoooOO##&%##oooO%#OOOOOOOOOOOOOOOoooOo#%&X ",
"*#OO#&%#OOOO%OOOOOOOOoooOO##&###Ooo###OOOOOOOOOOOOOOOoooOO##&#X ",
"*%O#&###OO###OOOOOOOoooOOO#&#%#Ooo#%#OOOOOOOOOOOOOOOoooOO##&##X ",
"*%O&###OO###OOOOOOOoooOO#%&###Ooo##OoOOOOOOOOOOOOOOoooOo##&%##X ",
"*#&#%#OO##OOOOOOOOoooOO##&#%#oooO%#OOOOOOOOOOOOOOOoooOO##&###Oo ",
"*##%OOo###OOOOOOOoooOOO%&%%OOooO%#oOOOOOOOOOOOOOOoooOO##&#%#ooX ",
"*###Oo#%#OOOOOOOoooOo#%&###ooo###oOOOOOOOOOOOOOOoooOo##&#%#OooX ",
"*%#oO#%OOOOOOOOoooOO##&%##Ooo###OOOOOOOOOOOOOOOoooOO##&%%OoooOX ",
"*#OO#%#oOOOOOOoooOo##&###Ooo###OOOOOOOOOOOOOOOoooOO#%&###ooo##X ",
"*%OO%OOOOOOOOoooOO##&%##ooo###oOOOOOOOOOOOOOOoooOOO%&#%#Ooo###X ",
"*####OOOOOOOoooOO#%&%##ooo###oOOOOOOOOOOOOOOoooOO##&#%#Ooo###OX ",
"*###OOOOOOOoooOOO#&###Ooo###OOOOOOOOOOOOOOOoooOO##&#%Oooo###oOX ",
"*##oOOOOOOoooOOO%&###OooO##oOOOOOOOOOOOOOOoooOO##&###oooO%#OOOo ",
"*%OOOOOOOoooOO##&%##ooo#%#OOOOOOOOOOOOOOOoooOOO%&%##Ooo###OOOOX ",
"*#OOOOOOoooOo#%&%##oooO##OOOOOOOOOOOOOOOoooOO##&#%#Ooo##OOOOOOX ",
"*%OOOOOoooOO##&###Ooo#%#OOOOOOOOOOOOOOOoooOo##&#%Oooo###OOOOOoX ",
"*%OOOOoooOo##&%##oooO%#OOOOOOOOOOOOOOOoooOO##&###Ooo###OOOOOOOX ",
"*#OOOoooOO##&%##Ooo###OOOOOOOOOOOOOOOoooOO##&#%#ooo###oOOOOOOOX ",
"*%oOoooOOO%&###Ooo#%#OOOOOOOOOOOOOOOoooOO##&%##Ooo###oOOOOOOOOX ",
"*#OoooOO#%&%##ooo##OoOOOOOOOOOOOOOOoooOOO%&###OooO##OOOOOOOOOOX ",
"*#oooOOO#&###oooO%#OOOOOOOOOOOOOOOoooOO##&#%#ooo#%#oOOOOOOOOOOo ",
"*%ooOO#%&#%#Ooo#%#oOOOOOOOOOOOOOOoooOOO%&%%OOooO%OOOOOOOOOOOOOX ",
"*%oOO##&%##OooO%#oOOOOOOOOOOOOOOoooOo#%&###ooo###OOOOOOOOOOOOOX ",
"*#Oo##&###ooo#%#OOOOOOOOOOOOOOOoooOO##&%##Ooo###OOOOOOOOOOOOOoX ",
"*%o##&%#OOoo##OOOOOOOOOOOOOOOOoooOo##&###Ooo###OOOOOOOOOOOOOOOX ",
"*#O%&###Ooo###OOOOOOOOOOOOOOOoooOO##&%##ooo###oOOOOOOOOOOOOOOoX ",
"*#%&#%#Ooo###OOOOOOOOOOOOOOOoooOO#%&%##ooo###oOOOOOOOOOOOOOOooX ",
"*#&%##OooO##OOOOOOOOOOOOOOOoooOOO#&###Ooo###OOOOOOOOOOOOOOOoooX ",
"*%###Ooo##OOOOOOOOOOOOOOOOoooOO#%&###OooO##oOOOOOOOOOOOOOOoooOX ",
"*#%#ooo###OOOOOOOOOOOOOOOoooOOO%&%##ooo#%#OOOOOOOOOOOOOOOoooOOX ",
"*%OOoo###OOOOOOOOOOOOOOOoooOO##&%##oooO##OOOOOOOOOOOOOOOoooOo#X ",
"*#OooO##OOOOOOOOOOOOOOOoooOo##&###Ooo#%#OOOOOOOOOOOOOOOoooOO##X ",
"*%oo#%#oOOOOOOOOOOOOOOoooOO##&###oooO%#OOOOOOOOOOOOOOOoooOo#%&X ",
"*%oO%OOOOOOOOOOOOOOOOoooOO##&#%#Ooo###OOOOOOOOOOOOOOOoooOO##&#X ",
"*####OOOOOOOOOOOOOOOoooOO##&%##Ooo#%#OOOOOOOOOOOOOOOoooOO##&##X ",
"*###OOOOOOOOOOOOOOOoooOOO%&###ooo##OoOOOOOOOOOOOOOOoooOo##&%##X ",
"*##oOOOOOOOOOOOOOOoooOO#%&#%#Ooo###OOOOOOOOOOOOOOOoooOO##&###Oo ",
"*%OOOOOOOOOOOOOOOoooOOO%&#%OOoo###oOOOOOOOOOOOOOOoooOO##&#%#ooX ",
"*#OOOOOOOOOOOOOOoooOO##&#%#ooo###oOOOOOOOOOOOOOOoooOo##&#%#OooX ",
"*%OOOOOOOOOOOOOoooOo##&###OooO##OOOOOOOOOOOOOOOoooOO##&%%OoooOX ",
"*%OOOOOOOOOOOOoooOO##&###ooo#%#OOOOOOOOOOOOOOOoooOO#%&###ooo##X ",
"*#OOOOOOOOOOOoooOO##&#%#OooO%OOOOOOOOOOOOOOOOoooOOO%&#%#Ooo###X ",
"*%oOOOOOOOOOoooOO##&%##Ooo###OOOOOOOOOOOOOOOoooOO##&#%#Ooo###OX ",
"*#OOOOOOOOOoooOOO%&###ooo###oOOOOOOOOOOOOOOoooOO##&#%Oooo###oOX ",
"*%OOOOOOOOoooOO#%&###ooo###OOOOOOOOOOOOOOOoooOo##&###oooO%#OOOo ",
"*#OOOOOOOoooOOO%&###Ooo###oOOOOOOOOOOOOOOoooOO##&#%#Ooo###OOOOX ",
"*#OOOOOOoooOo#%&%##Ooo#%#oOOOOOOOOOOOOOOoooOOO%&%##OooO%OOOOOOX ",
"*#OOOOOoooOO##&%##ooo##OOOOOOOOOOOOOOOOoooOO#%&%##ooo#%#OOOOOoX ",
"*#OOOOoooOo##&###oooO%#OOOOOOOOOOOOOOOoooOOO%&%#OOooO%#OOOOOOOX ",
"*%OOooooOO##&%##ooo#%#ooOOOOOoOOOOOoOoooOo#%&##OOoo###oOOOOOOOX ",
"*OXXXXXXoXXXXXXXXXXXoXXXXXoXXXXXoXXXXXoXXXXXXXXXXXoXXXXXXXXXXXX ",
"O                                                               "
};
