/* XPM */
static char *_ddaeb93d6e8480ea5b502a97d38dcc1GuZkrLKNjmav5kjH[] = {
/* columns rows colors chars-per-pixel */
"64 64 151 2 ",
"   c None",
".  c #7D7D7D",
"X  c #807F7F",
"o  c #7F807F",
"O  c #7F7F80",
"+  c #7F8080",
"@  c #848484",
"#  c #878887",
"$  c #878788",
"%  c #8B8B8B",
"&  c #8F908F",
"*  c #908F90",
"=  c #8F9090",
"-  c #949494",
";  c #989796",
":  c #979897",
">  c #989897",
",  c #969798",
"<  c #979898",
"1  c #9C9C9C",
"2  c #A09F9F",
"3  c #A0A09F",
"4  c #9F9FA0",
"5  c #A09FA0",
"6  c #9FA0A0",
"7  c #A3A3A3",
"8  c #A8A7A7",
"9  c #A8A8A7",
"0  c #A7A7A9",
"q  c #A7A8A8",
"w  c #AFAFAD",
"e  c #AEAEAE",
"r  c #AFAFAF",
"t  c #AFAFAE",
"y  c #ACADAD",
"u  c #ACACAC",
"i  c #B0AFAF",
"p  c #AFB0AF",
"a  c #AFB0AF",
"s  c #B0AFB0",
"d  c #B0AFB0",
"f  c #B0B1B1",
"g  c #B0B1B1",
"h  c #B2B2B1",
"j  c #B2B1B2",
"k  c #B1B2B2",
"l  c #B2B2B2",
"z  c gray70",
"x  c #B4B4B4",
"c  c gray71",
"v  c #B5B4B5",
"b  c #B6B5B6",
"n  c #B4B6B6",
"m  c #B7B6B7",
"M  c #B7B7B7",
"N  c #B6B7B7",
"B  c #B4B4B4",
"V  c #B7B7B8",
"C  c #B8B7B8",
"Z  c #B7B8B8",
"A  c gray72",
"S  c #B9B8B8",
"D  c #B9B9B8",
"F  c #B9B9B9",
"G  c #BAB9B9",
"H  c #B9BAB9",
"J  c #BABAB9",
"K  c #BAB9BA",
"L  c gray73",
"P  c #BABBBA",
"I  c #BBBBBB",
"U  c #BCBCBB",
"Y  c #BDBCBB",
"T  c #BCBDBB",
"R  c #BCBBBC",
"E  c #BCBCBC",
"W  c #BCBDBD",
"Q  c gray74",
"!  c #BEBEBD",
"~  c #BDBDBE",
"^  c #BEBDBE",
"/  c gray",
"(  c #BFBEBE",
")  c #BEBFBE",
"_  c #BEBFBF",
"`  c gray75",
"'  c #BBBBBB",
"]  c #C0BFBF",
"[  c #C0BFBF",
"{  c #C0C0BF",
"}  c #BFBFC0",
"|  c #C0C0C0",
" . c #C0C1C0",
".. c #C0C0C1",
"X. c #C1C1C1",
"o. c #C2C2C1",
"O. c #C3C2C1",
"+. c #C1C1C2",
"@. c gray76",
"#. c #C2C3C2",
"$. c #C3C3C2",
"%. c #C3C3C3",
"&. c #C3C4C3",
"*. c gray77",
"=. c #C4C5C4",
"-. c #C5C5C4",
";. c #C4C5C5",
":. c #C6C5C5",
">. c #C6C6C6",
",. c #C7C7C6",
"<. c gray78",
"1. c #C4C4C4",
"2. c #C8C7C7",
"3. c #C8C7C7",
"4. c #C8C8C7",
"5. c #C8C8C8",
"6. c #C8C9C8",
"7. c #C9C9C8",
"8. c #C8C8C9",
"9. c gray79",
"0. c #C9CACA",
"q. c #CACACA",
"w. c #CBCACB",
"e. c #CBCBCB",
"r. c gray80",
"t. c #CCCDCD",
"y. c #CDCDCD",
"u. c #CDCDCE",
"i. c #CECECF",
"p. c #CCCCCC",
"a. c #D0CFCF",
"s. c #D0CFCF",
"d. c #CFCFD0",
"f. c #D0CFD0",
"g. c #D0CFD0",
"h. c #CED0D0",
"j. c gray82",
"k. c #D2D2D2",
"l. c #D3D2D2",
"z. c gray83",
"x. c #D4D4D3",
"c. c #D8D9D7",
"v. c #D7D7D8",
"b. c #D8D7D8",
"n. c #D7D8D8",
"m. c #DCDCDC",
"M. c #E0DFDE",
"N. c #E0DFE0",
"B. c #E3E3E3",
"V. c #E8E8E7",
"C. c #EAEAEA",
/* pixels */
". . . . o . + @ . @ @ @ @ @ @ $ @ $ $ $ % $ $ % % % % $ % % % $ % % % % % $ % % $ % % % $ $ # # # @ @ @ @ @ @ @ @ O . . . X . $ ",
". $ % $ % - - - - - < < ; < 1 1 1 1 1 1 1 2 1 3 7 1 2 7 1 7 7 7 7 7 1 7 7 6 6 2 2 2 1 1 1 2 1 1 1 1 1 1 - 1 - - - - - - % % 1 % ",
". % 1 1 2 S                                                                                                         Z 3 1 7 > % ",
". $ 1 7 3 7                                                                                                         1 6 7 3 1 % ",
". & 2 1 q 7 1                                                                                                     1 7 q 3 7 1 % ",
". - C 7 7 q 7 3                                                                                                 7 7 e q 7 T 3 - ",
"X -     1 7 e 7 7                                                                                             7 8 e q 8     3 = ",
"X -       2 8 i 9 7                                                                                         7 q i u q       3 - ",
"@ -         7 q g u 7                                                                                     7 u B i q         7 - ",
"@ -           7 u g e 7                                                                                 q e m g e           7 - ",
"@ ;             7 p m g q                                                                             q f Z m e             7 - ",
"@ -               7 g S g e                                                                         y B S m g               7 - ",
"@ <                 q B W m u                                                                     e m P S g                 8 - ",
"@ 1                   q m W m e                                                                 g S W ' V                   8 - ",
"@ 1                     e C W S g                                                             g S O.W S                     8 ; ",
"@ 1                       i S &.W g                                                         B W ;.O.S                       q ; ",
"$ 1                         g W -.W B                                                     B } -.;.P                         q 1 ",
"@ 1                           g W 4.O.Z                                                 S O.9.-.W                           9 1 ",
"$ 1                             m { 9.O.S                                             S %.9.9.|                             q 1 ",
"# 1                               C O.r.-.S                                         I <.r.p.O.                              q 1 ",
"% 1                                 S -.h.<.W                                     } <.d.r.-.                                u 1 ",
"$ 1                                   S 9.j.9.W                                 O.p.j.d.9.                                  q 1 ",
"% 2                                     W 9.x.r.O.                            O.r.z.j.9.                                    e 1 ",
"% 1                                       O.r.z.d.%.                        ;.j.n.z.p.                                      e 1 ",
"$ 3                                         O.d.n.j.-.                    2.x.n.v.r.                                        e 1 ",
"% 3                                           ;.j.m.x.4.                9.z.m.n.d.                                          e 1 ",
"% 2                                             -.z.m.z.9.            9.z.B.m.j.                                            e 1 ",
"$ 7                                               4.z.B.b.r.        r.n.B.m.z.                                              e 2 ",
"% 7                                                 9.n.B.n.r.    j.m.B.N.z.                                                p 1 ",
"% 3                                                   w.m.B.m.d.j.m.B.m.v.                                                  e 2 ",
"% 7                                                     r.m.V.N.B.B.m.j.                                                    g 1 ",
"% 7                                                       g.N.C.C.B.j.                                                      r 2 ",
"$ 5                                                       g.B.V.C.B.h.                                                      r 1 ",
"% 7                                                     d.m.V.V.B.V.B.j.                                                    g 4 ",
"% 7                                                   w.n.V.V.m.j.m.V.m.r.                                                  e 1 ",
"$ 7                                                 9.n.B.B.n.    a.m.B.m.9.                                                e 7 ",
"% 2                                               8.z.B.B.c.        r.m.B.b.9.                                              e 1 ",
"% 7                                             8.z.m.M.z.            w.n.M.z.-.                                            g 1 ",
"$ 6                                           %.z.m.m.z.                9.z.m.z.<.                                          e 1 ",
"% 2                                         %.a.m.n.j.                    9.z.m.j.%.                                        s 1 ",
"% 3                                       O.r.z.n.s.                        -.j.n.g.O.                                      e 1 ",
"$ 2                                     W p.z.z.r.                            -.g.z.p.}                                     e 1 ",
"% 1                                   T 9.j.j.r.                                O.r.j.9.'                                   e 1 ",
"% 1                                 S 2.h.h.9.                                    O.9.j.<.I                                 u 1 ",
"% 1                               Z ;.p.r.<.                                        W 9.r.-.S                               q 1 ",
"$ 1                             m O.9.p.-.                                            S -.r.O.V                             q 1 ",
"$ 1                           m } <.<.$.                                                I O.9.} m                           e 1 ",
"$ 1                         g W -.-.O.                                                    V | <.W g                         q 1 ",
"$ 1                       e J %.%.W                                                         m [ -.' g                       q 1 ",
"$ 1                     e Z O.O.R                                                             g ' O.S r                     q ; ",
"@ -                   u V W W S                                                                 g S O.V u                   7 > ",
"$ 1                 u B W I C                                                                     e V ' m u                 q ; ",
"@ 1               q f S S m                                                                         e B ' g q               7 - ",
"@ -             7 e Z m g                                                                             y g S f 7             7 - ",
"@ -           7 e m m p                                                                                 q f m y 7           7 - ",
"@ -         7 q g g r                                                                                     q e B e 7         7 - ",
"@ -       7 q g i e                                                                                         7 u g u 7       7 - ",
"o -     1 7 e e q                                                                                             7 q i q 5     7 % ",
"o - Z 1 7 u 7 q                                                                                                 7 8 e 7 1 O.7 % ",
"+ % 3 7 9 7 1                                                                                                     1 7 q 7 q 2 & ",
". * 1 8 7 1                                                                                                         1 7 q 7 1 % ",
". % 7 5 7 P                                                                                                         $.q 7 7 1 = ",
". < 1 < 1 2 2 3 7 7 7 7 8 q q q q u u q e q e u e f e e g s g g r f r r i g e e e u u q u u q u q q q q 7 7 7 7 7 7 2 1 1 1 1 $ ",
"$ % % % % - % - - - - - - - - 1 - 1 1 1 1 1 1 1 1 1 1 1 1 5 1 1 6 1 1 7 1 1 1 1 1 1 1 1 1 1 ; 1 1 ; ; ; - - - - - & - & % % % % "
};
